<svg xmlns="http://www.w3.org/2000/svg" width="128" height="128" viewBox="0 0 128 128">
    <rect x="8" y="8" width="112" height="112" rx="24" ry="24" fill="#2c3e50"/>

    <path fill="#ffffff" d="M30,30 L98,30 C102,30 108,50 105,70 C100,95 64,115 64,115 C64,115 28,95 23,70 C20,50 26,30 30,30 Z"/>

    <g transform="translate(27, 35) scale(0.7)">

        <path fill="#3498db" d="M10,20 C10,20 0,45 10,70 C15,85 30,95 50,95 C75,95 95,75 100,55 C105,35 90,15 70,5 C50,-5 25,0 10,20 Z"/>

        <g fill="none" stroke="#2980b9" stroke-width="4" stroke-linecap="round">
            <path d="M25,15 C40,5 70,10 85,30"/>
            <path d="M18,45 C30,40 60,40 90,55"/>
            <path d="M20,75 C35,85 65,85 85,70"/>
        </g>

        <path fill="none" stroke="#2c3e50" stroke-width="3" stroke-linecap="round" d="M12,24 C8,45 8,55 12,70"/>

    </g>
</svg>